<?xml version="1.0" encoding="utf-8"?>
<!-- Generator: Adobe Illustrator 24.2.1, SVG Export Plug-In . SVG Version: 6.00 Build 0)  -->
<svg version="1.1" id="Layer_1" xmlns="http://www.w3.org/2000/svg" xmlns:xlink="http://www.w3.org/1999/xlink" x="0px" y="0px"
	 viewBox="0 0 278 224" style="enable-background:new 0 0 278 224;" xml:space="preserve">
<style type="text/css">
	.st0{enable-background:new    ;}
	.st1{clip-path:url(#SVGID_2_);enable-background:new    ;}
	.st2{fill:#848585;}
	.st3{fill:#6A7E80;}
	.st4{fill:#89A3A5;}
	.st5{clip-path:url(#SVGID_4_);enable-background:new    ;}
	.st6{fill:#898A8A;}
	.st7{fill:#8E8F8F;}
	.st8{fill:#939494;}
	.st9{fill:#989999;}
	.st10{clip-path:url(#SVGID_6_);enable-background:new    ;}
	.st11{fill:#768C8E;}
	.st12{fill:#B3D4D7;}
	.st13{fill:#99B6B8;}
	.st14{fill:#7F8080;}
	.st15{clip-path:url(#SVGID_8_);enable-background:new    ;}
	.st16{fill:#6E8385;}
	.st17{fill:#72888A;}
	.st18{fill:#778D8F;}
	.st19{fill:#7B9294;}
	.st20{fill:#7F9799;}
	.st21{clip-path:url(#SVGID_10_);enable-background:new    ;}
	.st22{fill:#9D9E9E;}
	.st23{fill:#A2A3A3;}
	.st24{fill:#A7A8A8;}
	.st25{fill:#ACADAD;}
	.st26{fill:#B1B3B3;}
	.st27{fill:#B6B8B8;}
	.st28{fill:#BBBDBD;}
	.st29{fill:#C0C2C2;}
	.st30{fill:#C5C7C7;}
	.st31{fill:#CACCCC;}
	.st32{fill:#CFD1D1;}
	.st33{fill:#D5D6D6;}
	.st34{fill:#DADBDB;}
	.st35{fill:#D5D7D7;}
	.st36{fill:#8D8E8E;}
	.st37{fill:#A4A5A5;}
	.st38{clip-path:url(#SVGID_12_);enable-background:new    ;}
	.st39{fill:#839C9E;}
	.st40{fill:#88A1A3;}
	.st41{fill:#8CA6A8;}
	.st42{fill:#90ABAD;}
	.st43{fill:#94B0B3;}
	.st44{fill:#99B5B8;}
	.st45{fill:#9DBABD;}
	.st46{fill:#A1C0C2;}
	.st47{fill:#A5C5C7;}
	.st48{fill:#AACACC;}
	.st49{fill:#AECFD1;}
	.st50{fill:#B2D4D6;}
	.st51{fill:#B6D9DB;}
	.st52{fill:#CCF2F5;}
	.st53{clip-path:url(#SVGID_14_);enable-background:new    ;}
	.st54{fill:#F3F5F5;}
	.st55{clip-path:url(#SVGID_16_);enable-background:new    ;}
	.st56{clip-path:url(#SVGID_18_);enable-background:new    ;}
	.st57{fill:#392F29;}
	.st58{fill:#56473F;}
	.st59{fill:#624032;}
	.st60{fill:#B1735A;}
	.st61{fill:#2F2723;}
</style>
<g id="Fountain">
	<g class="st0">
		<g class="st0">
			<defs>
				<path id="SVGID_1_" class="st0" d="M54.81,92.23c-11.98,6.96-20.87,15.03-26.67,23.64l3.75-5.56
					c5.61-8.32,14.21-16.12,25.78-22.85c45.15-26.24,118.6-26.24,164.05,0c11.96,6.9,20.79,14.94,26.48,23.5l3.71,5.58
					c-5.89-8.86-15.02-17.17-27.39-24.32C177.5,65.08,101.53,65.08,54.81,92.23z"/>
			</defs>
			<clipPath id="SVGID_2_">
				<use xlink:href="#SVGID_1_"  style="overflow:visible;"/>
			</clipPath>
			<g class="st1">
				<path class="st2" d="M248.18,110.93l3.71,5.58c-5.89-8.85-15.02-17.15-27.38-24.29c-47.02-27.14-122.99-27.14-169.71,0
					c-11.99,6.97-20.88,15.04-26.69,23.66l3.75-5.56c5.61-8.33,14.21-16.13,25.8-22.87c45.15-26.24,118.6-26.24,164.05,0
					C233.66,94.35,242.49,102.38,248.18,110.93"/>
			</g>
		</g>
		<g>
			<polygon class="st3" points="202.19,134.97 207.83,141.38 139.72,102.06 139.76,98.93 			"/>
		</g>
		<g>
			<polygon class="st3" points="139.76,98.93 139.72,102.06 72.06,141.38 77.74,134.97 			"/>
		</g>
		<g>
			<polygon class="st4" points="202.27,107.03 202.19,134.97 139.76,98.93 139.84,70.99 			"/>
		</g>
		<g class="st0">
			<defs>
				<path id="SVGID_3_" class="st0" d="M57.67,87.46c-22.43,13.03-33.65,30.09-33.71,47.17l0.08-27.94
					c0.05-17.08,11.28-34.13,33.71-47.17c45.15-26.24,118.6-26.24,164.05,0c22.34,12.9,33.76,29.74,34.23,46.64
					c-0.02,9.27-0.03,18.54-0.06,27.81l0,1.34c0.06-17.31-11.37-34.65-34.24-47.86C176.27,61.22,102.82,61.22,57.67,87.46z"/>
			</defs>
			<clipPath id="SVGID_4_">
				<use xlink:href="#SVGID_3_"  style="overflow:visible;"/>
			</clipPath>
			<g class="st5">
				<path class="st2" d="M256.04,107.36l-0.08,27.94c0.01-1.81-0.12-3.63-0.36-5.44l0.08-27.94
					C255.92,103.73,256.05,105.55,256.04,107.36"/>
				<path class="st6" d="M255.68,101.92l-0.08,27.94c-0.7-5.1-2.39-10.16-5.08-15.08l0.08-27.94
					C253.29,91.76,254.98,96.83,255.68,101.92"/>
				<path class="st7" d="M250.59,86.85l-0.08,27.94c-2.44-4.45-5.7-8.79-9.77-12.93l0.08-27.94
					C244.9,78.06,248.16,82.39,250.59,86.85"/>
				<path class="st8" d="M240.82,73.91l-0.08,27.94c-4.56-4.63-10.14-9.01-16.74-13.04l0.08-27.94
					C230.68,64.9,236.27,69.28,240.82,73.91"/>
				<path class="st9" d="M224.08,60.87L224,88.81c-0.75-0.46-1.51-0.91-2.28-1.35c-23.15-13.36-53.55-19.92-83.79-19.67l0.08-27.94
					c30.24-0.25,60.64,6.31,83.79,19.67C222.57,59.96,223.33,60.42,224.08,60.87"/>
				<path class="st8" d="M138.01,39.85l-0.08,27.94c-9.35,0.08-18.68,0.8-27.77,2.18l0.08-27.94
					C119.33,40.65,128.66,39.92,138.01,39.85"/>
				<path class="st7" d="M110.24,42.03l-0.08,27.94c-7.82,1.18-15.46,2.85-22.78,4.99l0.08-27.94
					C94.78,44.88,102.42,43.21,110.24,42.03"/>
				<path class="st6" d="M87.45,47.02l-0.08,27.94c-7.74,2.26-15.12,5.06-21.99,8.4l0.08-27.94C72.33,52.09,79.72,49.28,87.45,47.02
					"/>
				<path class="st2" d="M65.46,55.42l-0.08,27.94c-2.65,1.29-5.22,2.65-7.71,4.1c-22.43,13.04-33.66,30.1-33.71,47.18l0.08-27.94
					c0.05-17.08,11.28-34.14,33.71-47.18C60.24,58.07,62.81,56.71,65.46,55.42"/>
			</g>
		</g>
		<g class="st0">
			<defs>
				<path id="SVGID_5_" class="st0" d="M256.04,107.38c-0.02,7.98-0.05,18.62-0.08,26.6c0.03-9.27,0.04-18.54,0.06-27.81
					C256.04,106.57,256.04,106.97,256.04,107.38z"/>
			</defs>
			<clipPath id="SVGID_6_">
				<use xlink:href="#SVGID_5_"  style="overflow:visible;"/>
			</clipPath>
			<g class="st10">
				<path class="st2" d="M256.04,107.36l-0.08,27.94c0.01-1.81-0.12-3.63-0.36-5.44l0.08-27.94
					C255.92,103.73,256.05,105.55,256.04,107.36"/>
			</g>
		</g>
		<g>
			<polygon class="st11" points="139.84,70.99 139.76,98.93 77.74,134.97 77.82,107.03 			"/>
		</g>
		<g>
			<polygon class="st12" points="207.94,100.62 202.27,107.03 139.84,70.99 139.84,61.3 			"/>
		</g>
		<g>
			<polygon class="st13" points="139.84,61.3 139.84,70.99 77.82,107.03 72.18,100.62 			"/>
		</g>
		<g>
			<polygon class="st14" points="202.19,134.97 196.51,141.38 140.13,174.15 140.17,171.01 			"/>
		</g>
		<g>
			<polygon class="st14" points="140.17,171.01 140.13,174.15 83.37,141.38 77.74,134.97 			"/>
		</g>
		<g class="st0">
			<defs>
				<path id="SVGID_7_" class="st0" d="M256.04,107.36l-0.08,27.94c-0.05,17.09-11.28,34.15-33.71,47.18
					c-45.16,26.24-118.6,26.24-164.05,0c-22.87-13.2-34.29-30.54-34.24-47.84l0.08-27.94c-0.05,17.31,11.37,34.64,34.24,47.84
					c45.45,26.24,118.89,26.24,164.05,0C244.76,141.51,255.99,124.45,256.04,107.36z"/>
			</defs>
			<clipPath id="SVGID_8_">
				<use xlink:href="#SVGID_7_"  style="overflow:visible;"/>
			</clipPath>
			<g class="st15">
				<path class="st16" d="M256.04,107.36l-0.08,27.94c-0.05,17.09-11.28,34.15-33.71,47.18c-2.49,1.45-5.06,2.81-7.71,4.1
					l0.08-27.94c2.65-1.29,5.22-2.65,7.71-4.1C244.76,141.51,255.99,124.45,256.04,107.36"/>
				<path class="st17" d="M214.62,158.64l-0.08,27.94c-6.87,3.34-14.26,6.14-22,8.4l0.08-27.94
					C200.36,164.77,207.75,161.97,214.62,158.64"/>
				<path class="st18" d="M192.63,167.04l-0.08,27.94c-7.33,2.14-14.97,3.81-22.78,4.99l0.08-27.94
					C177.66,170.85,185.3,169.18,192.63,167.04"/>
				<path class="st19" d="M169.84,172.03l-0.08,27.94c-9.09,1.38-18.42,2.1-27.77,2.18l0.08-27.94
					C151.42,174.14,160.75,173.41,169.84,172.03"/>
				<path class="st20" d="M142.07,174.21L142,202.16c-30.24,0.25-60.64-6.31-83.79-19.67c-0.77-0.45-1.54-0.9-2.28-1.35L56,153.19
					c0.75,0.46,1.51,0.91,2.28,1.35C81.43,167.9,111.84,174.46,142.07,174.21"/>
				<path class="st19" d="M56,153.19l-0.08,27.94c-6.6-4.03-12.19-8.41-16.74-13.04l0.08-27.94C43.82,144.77,49.4,149.16,56,153.19"
					/>
				<path class="st18" d="M39.26,140.14l-0.08,27.94c-4.08-4.14-7.33-8.48-9.77-12.93l0.08-27.94
					C31.92,131.66,35.18,136,39.26,140.14"/>
				<path class="st17" d="M29.49,127.21l-0.08,27.94c-2.69-4.92-4.39-9.98-5.08-15.07l0.08-27.94
					C25.1,117.23,26.79,122.29,29.49,127.21"/>
				<path class="st16" d="M24.4,112.14l-0.08,27.94c-0.25-1.81-0.37-3.62-0.36-5.44l0.08-27.94
					C24.04,108.51,24.16,110.33,24.4,112.14"/>
			</g>
		</g>
		<g class="st0">
			<defs>
				<path id="SVGID_9_" class="st0" d="M57.75,59.52c-33.28,19.34-41.9,47.53-25.95,71.52l-3.71-5.58
					c-16.5-24.82-7.58-53.98,26.84-73.98c46.71-27.14,122.69-27.14,169.71,0c34.96,20.19,44.06,49.7,27.22,74.66l-3.75,5.56
					c16.28-24.14,7.48-52.66-26.32-72.17C176.35,33.28,102.9,33.28,57.75,59.52z"/>
			</defs>
			<clipPath id="SVGID_10_">
				<use xlink:href="#SVGID_9_"  style="overflow:visible;"/>
			</clipPath>
			<g class="st21">
				<path class="st9" d="M251.87,126.11l-3.75,5.56c1.07-1.58,2.02-3.18,2.87-4.8l3.85-5.72
					C253.97,122.82,252.97,124.48,251.87,126.11"/>
				<path class="st22" d="M254.84,121.15l-3.85,5.72c1.25-2.38,2.27-4.79,3.06-7.22l3.95-5.97
					C257.19,116.2,256.14,118.69,254.84,121.15"/>
				<path class="st23" d="M258.01,113.68l-3.95,5.97c0.75-2.32,1.29-4.65,1.61-7l4.01-6.21
					C259.34,108.87,258.78,111.28,258.01,113.68"/>
				<path class="st24" d="M259.67,106.44l-4.01,6.21c0.31-2.26,0.43-4.52,0.35-6.79l4.02-6.45
					C260.12,101.76,260,104.11,259.67,106.44"/>
				<path class="st25" d="M260.03,99.42l-4.02,6.45c-0.08-2.22-0.35-4.44-0.8-6.65l3.99-6.68
					C259.68,94.82,259.95,97.12,260.03,99.42"/>
				<path class="st26" d="M259.2,92.54l-3.99,6.68c-0.45-2.2-1.1-4.39-1.93-6.56l3.92-6.9C258.07,87.99,258.73,90.26,259.2,92.54"/>
				<path class="st27" d="M257.21,85.75l-3.92,6.9c-0.84-2.2-1.87-4.38-3.09-6.52l3.82-7.13C255.28,81.22,256.34,83.48,257.21,85.75
					"/>
				<path class="st28" d="M254.01,79l-3.82,7.13c-1.27-2.23-2.74-4.43-4.42-6.58l3.66-7.36C251.17,74.42,252.7,76.69,254.01,79"/>
				<path class="st29" d="M249.44,72.19l-3.66,7.36c-1.78-2.29-3.8-4.54-6.05-6.72l3.46-7.59C245.51,67.5,247.59,69.82,249.44,72.19
					"/>
				<path class="st30" d="M243.18,65.23l-3.46,7.59c-2.51-2.44-5.3-4.8-8.38-7.08l3.17-7.83C237.7,60.27,240.59,62.71,243.18,65.23"
					/>
				<path class="st31" d="M234.51,57.91l-3.17,7.83c-2.92-2.16-6.1-4.24-9.54-6.22c-0.75-0.43-1.51-0.86-2.28-1.28l2.76-8.09
					c0.79,0.43,1.58,0.87,2.35,1.32C228.19,53.52,231.49,55.68,234.51,57.91"/>
				<path class="st32" d="M222.28,50.15l-2.76,8.09c-4.93-2.7-10.17-5.1-15.64-7.21l2.22-8.34
					C211.76,44.87,217.18,47.35,222.28,50.15"/>
				<path class="st33" d="M206.1,42.69l-2.22,8.34c-6.56-2.52-13.47-4.62-20.61-6.29l1.51-8.56
					C192.16,37.91,199.3,40.08,206.1,42.69"/>
				<path class="st34" d="M184.78,36.18l-1.51,8.56c-8.42-1.97-17.15-3.35-26-4.13l0.61-8.7C167.04,32.72,176.07,34.15,184.78,36.18
					"/>
				<path class="st33" d="M157.88,31.91l-0.61,8.7c-5.48-0.48-11-0.74-16.53-0.77l0.04-8.73C146.5,31.15,152.21,31.41,157.88,31.91"
					/>
				<path class="st32" d="M140.78,31.12l-0.04,8.73c-3.86-0.02-7.73,0.07-11.57,0.27l-0.36-8.72
					C132.79,31.19,136.79,31.09,140.78,31.12"/>
				<path class="st31" d="M128.81,31.4l0.36,8.72c-3.52,0.18-7.02,0.46-10.5,0.83l-0.72-8.69C121.55,31.87,125.17,31.59,128.81,31.4
					"/>
				<path class="st30" d="M117.94,32.26l0.72,8.69c-3.45,0.37-6.88,0.82-10.27,1.37l-1.07-8.64
					C110.83,33.11,114.37,32.63,117.94,32.26"/>
				<path class="st29" d="M107.32,33.68l1.07,8.64c-3.45,0.56-6.86,1.21-10.23,1.96l-1.42-8.57
					C100.22,34.93,103.75,34.25,107.32,33.68"/>
				<path class="st28" d="M96.74,35.7l1.42,8.57c-3.42,0.76-6.78,1.61-10.09,2.57l-1.77-8.48C89.72,37.37,93.2,36.49,96.74,35.7"/>
				<path class="st27" d="M86.3,38.36l1.77,8.48c-3.31,0.95-6.56,2.01-9.73,3.15l-2.11-8.38C79.52,40.43,82.88,39.34,86.3,38.36"/>
				<path class="st26" d="M76.24,41.62l2.11,8.38c-3.15,1.14-6.23,2.38-9.22,3.72l-2.43-8.25C69.79,44.08,72.98,42.8,76.24,41.62"/>
				<path class="st25" d="M66.7,45.47l2.43,8.25c-3,1.34-5.92,2.78-8.73,4.31l-2.73-8.1C60.58,48.34,63.59,46.85,66.7,45.47"/>
				<path class="st24" d="M57.67,49.93l2.73,8.1c-0.89,0.49-1.77,0.98-2.65,1.49c-1.93,1.12-3.78,2.27-5.54,3.45l-3.01-7.93
					c1.82-1.22,3.74-2.41,5.73-3.57C55.83,50.95,56.74,50.43,57.67,49.93"/>
				<path class="st23" d="M49.2,55.04l3.01,7.93c-2.68,1.79-5.16,3.64-7.46,5.54l-3.27-7.74C43.86,58.81,46.43,56.89,49.2,55.04"/>
				<path class="st22" d="M41.48,60.78l3.27,7.74c-2.47,2.05-4.72,4.16-6.74,6.32l-3.5-7.52C36.6,65.08,38.93,62.9,41.48,60.78"/>
				<path class="st9" d="M34.51,67.32l3.5,7.52c-2.23,2.38-4.19,4.82-5.88,7.3l-3.7-7.27C30.17,72.3,32.2,69.78,34.51,67.32"/>
				<path class="st8" d="M28.42,74.87l3.7,7.27c-1.97,2.89-3.58,5.84-4.83,8.83L23.43,84C24.72,80.91,26.38,77.86,28.42,74.87"/>
				<path class="st7" d="M23.43,84l3.87,6.96c-1.54,3.68-2.53,7.42-2.98,11.17l-3.97-6.58C20.81,91.67,21.84,87.81,23.43,84"/>
				<path class="st6" d="M20.35,95.56l3.97,6.58c-0.64,5.32-0.18,10.67,1.35,15.94l-3.93-6.03C20.16,106.6,19.69,101.06,20.35,95.56
					"/>
				<path class="st2" d="M21.75,112.05l3.93,6.03c1.29,4.41,3.34,8.76,6.15,12.98l-3.71-5.58C25.2,121.11,23.08,116.61,21.75,112.05
					"/>
			</g>
		</g>
		<g>
			<polygon class="st35" points="140.24,133.39 140.24,143.07 77.82,107.03 83.49,100.62 			"/>
		</g>
		<g>
			<polygon class="st36" points="202.27,107.03 202.19,134.97 140.17,171.01 140.24,143.07 			"/>
		</g>
		<g>
			<polygon class="st27" points="196.63,100.62 202.27,107.03 140.24,143.07 140.24,133.39 			"/>
		</g>
		<g>
			<polygon class="st37" points="140.24,143.07 140.17,171.01 77.74,134.97 77.82,107.03 			"/>
		</g>
		<g class="st0">
			<defs>
				<path id="SVGID_11_" class="st0" d="M244.55,77.41c1.24,1.86,2.48,3.72,3.71,5.58c15.97,24,7.36,52.2-25.93,71.55
					c-45.16,26.24-118.6,26.24-164.05,0c-33.79-19.51-42.59-48.02-26.33-72.15c0.07-0.07,0.13-0.19,0.19-0.28
					c0.06-0.08,0.13-0.19,0.19-0.28c0.5-0.74,1-1.48,1.5-2.22c0.62-0.93,1.25-1.85,1.87-2.78c-15.7,23.3-7.2,50.84,25.42,69.67
					c43.87,25.33,114.8,25.34,158.39,0C251.65,127.82,259.97,100.59,244.55,77.41z"/>
			</defs>
			<clipPath id="SVGID_12_">
				<use xlink:href="#SVGID_11_"  style="overflow:visible;"/>
			</clipPath>
			<g class="st38">
				<path class="st16" d="M244.55,77.41l3.71,5.58c2.81,4.22,4.86,8.57,6.15,12.98l-3.93-6.03
					C249.24,85.69,247.26,81.49,244.55,77.41"/>
				<path class="st17" d="M250.48,89.95l3.93,6.03c1.54,5.27,1.99,10.63,1.35,15.95l-3.97-6.58
					C252.4,100.21,251.97,95.04,250.48,89.95"/>
				<path class="st18" d="M251.79,105.34l3.97,6.58c-0.45,3.76-1.44,7.5-2.98,11.18l-3.87-6.96
					C250.4,112.58,251.35,108.97,251.79,105.34"/>
				<path class="st19" d="M248.91,116.14l3.87,6.96c-1.25,2.99-2.86,5.94-4.83,8.83l-3.7-7.27
					C246.15,121.87,247.71,119.02,248.91,116.14"/>
				<path class="st20" d="M244.25,124.66l3.7,7.27c-1.69,2.49-3.66,4.92-5.88,7.3l-3.5-7.52
					C240.72,129.41,242.62,127.06,244.25,124.66"/>
				<path class="st39" d="M238.57,131.71l3.5,7.52c-2.03,2.16-4.27,4.27-6.74,6.32l-3.27-7.74
					C234.44,135.83,236.61,133.79,238.57,131.71"/>
				<path class="st40" d="M232.06,137.81l3.27,7.74c-2.29,1.9-4.78,3.76-7.46,5.54l-3.01-7.93
					C227.45,141.44,229.85,139.65,232.06,137.81"/>
				<path class="st41" d="M224.86,143.16l3.01,7.93c-1.76,1.18-3.61,2.33-5.54,3.45c-0.87,0.51-1.76,1-2.65,1.49l-2.73-8.1
					c0.86-0.47,1.72-0.95,2.56-1.44C221.38,145.41,223.16,144.3,224.86,143.16"/>
				<path class="st42" d="M216.96,147.93l2.73,8.1c-2.81,1.54-5.73,2.97-8.73,4.31l-2.43-8.25
					C211.43,150.8,214.24,149.42,216.96,147.93"/>
				<path class="st43" d="M208.53,152.1l2.43,8.25c-2.99,1.34-6.07,2.58-9.22,3.72l-2.11-8.38
					C202.67,154.59,205.64,153.39,208.53,152.1"/>
				<path class="st44" d="M199.62,155.69l2.11,8.38c-3.17,1.15-6.42,2.2-9.72,3.15l-1.77-8.48
					C193.43,157.81,196.56,156.8,199.62,155.69"/>
				<path class="st45" d="M190.24,158.74l1.77,8.48c-3.3,0.95-6.67,1.81-10.09,2.57l-1.42-8.57
					C183.8,160.48,187.05,159.65,190.24,158.74"/>
				<path class="st46" d="M180.5,161.21l1.42,8.57c-3.37,0.75-6.78,1.4-10.23,1.96l-1.07-8.64
					C173.95,162.56,177.25,161.93,180.5,161.21"/>
				<path class="st47" d="M170.62,163.1l1.07,8.64c-3.39,0.55-6.82,1.01-10.27,1.37l-0.72-8.69
					C164.03,164.07,167.34,163.63,170.62,163.1"/>
				<path class="st48" d="M160.7,164.43l0.72,8.69c-3.48,0.37-6.99,0.65-10.5,0.83l-0.36-8.72
					C153.96,165.05,157.34,164.79,160.7,164.43"/>
				<path class="st49" d="M150.56,165.23l0.36,8.72c-3.85,0.2-7.71,0.29-11.57,0.27l0.04-8.73
					C143.11,165.51,146.84,165.42,150.56,165.23"/>
				<path class="st50" d="M139.39,165.49l-0.04,8.73c-5.53-0.03-11.05-0.29-16.53-0.77l0.61-8.7
					C128.72,165.22,134.05,165.46,139.39,165.49"/>
				<path class="st51" d="M123.43,164.75l-0.61,8.7c-8.86-0.78-17.59-2.16-26.01-4.13l1.51-8.56
					C106.45,162.66,114.88,163.99,123.43,164.75"/>
				<path class="st50" d="M98.32,160.76l-1.51,8.56c-7.13-1.67-14.04-3.77-20.6-6.29l2.22-8.34
					C84.76,157.12,91.43,159.15,98.32,160.76"/>
				<path class="st49" d="M78.42,154.69l-2.22,8.34c-5.48-2.11-10.71-4.51-15.65-7.21l2.76-8.09
					C68.08,150.34,73.14,152.65,78.42,154.69"/>
				<path class="st48" d="M63.32,147.73l-2.76,8.09c-0.77-0.42-1.53-0.85-2.28-1.28c-3.44-1.99-6.62-4.07-9.55-6.23l3.17-7.83
					c2.82,2.08,5.89,4.09,9.22,6.01C61.85,146.91,62.58,147.32,63.32,147.73"/>
				<path class="st47" d="M51.91,140.48l-3.17,7.83c-3.08-2.28-5.88-4.64-8.38-7.08l3.46-7.59C46.23,136,48.93,138.28,51.91,140.48"
					/>
				<path class="st46" d="M43.81,133.65l-3.46,7.59c-2.25-2.19-4.26-4.43-6.05-6.72l3.66-7.36
					C39.7,129.37,41.64,131.54,43.81,133.65"/>
				<path class="st45" d="M37.97,127.16l-3.66,7.36c-1.68-2.16-3.15-4.36-4.42-6.58l3.82-7.13
					C34.93,122.95,36.35,125.07,37.97,127.16"/>
				<path class="st44" d="M33.7,120.8l-3.82,7.13c-1.22-2.15-2.25-4.33-3.09-6.52l3.92-6.9C31.53,116.62,32.52,118.72,33.7,120.8"/>
				<path class="st43" d="M30.72,114.5l-3.92,6.9c-0.83-2.17-1.47-4.36-1.93-6.56l3.99-6.68C29.3,110.29,29.92,112.4,30.72,114.5"/>
				<path class="st42" d="M28.86,108.17l-3.99,6.68c-0.46-2.21-0.72-4.43-0.8-6.65l4.02-6.45
					C28.16,103.89,28.42,106.03,28.86,108.17"/>
				<path class="st41" d="M28.08,101.74l-4.02,6.45c-0.08-2.26,0.04-4.53,0.35-6.79l4.01-6.21C28.12,97.37,28.01,99.56,28.08,101.74
					"/>
				<path class="st40" d="M28.42,95.19l-4.01,6.21c0.32-2.34,0.86-4.68,1.61-7l3.95-5.97C29.25,90.67,28.73,92.92,28.42,95.19"/>
				<path class="st39" d="M29.97,88.43l-3.95,5.97c0.79-2.43,1.8-4.84,3.06-7.22l3.85-5.72C31.72,83.75,30.73,86.08,29.97,88.43"/>
				<path class="st20" d="M32.93,81.46l-3.85,5.72c0.85-1.62,1.81-3.22,2.87-4.8l3.75-5.56C34.67,78.35,33.75,79.9,32.93,81.46"/>
			</g>
		</g>
		<g>
			<path class="st52" d="M219,54.75c43.88,25.33,44.11,66.42,0.52,91.75c-43.6,25.34-114.52,25.33-158.39,0
				c-43.88-25.33-44.12-66.41-0.52-91.75C104.19,29.41,175.12,29.41,219,54.75z M140.28,139.94l67.66-39.32l-68.1-39.32
				l-67.66,39.32L140.28,139.94"/>
		</g>
		<g class="st0">
			<defs>
				<path id="SVGID_13_" class="st0" d="M259.47,74.1c1.24,1.86,2.48,3.72,3.71,5.58c18.18,27.31,8.37,59.4-29.5,81.41
					c-51.38,29.86-134.96,29.86-186.68,0C8.56,138.9-1.46,106.44,17.05,78.98c0,0,0,0,0,0c1.25-1.85,2.5-3.71,3.75-5.56
					c-17.94,26.63-8.23,58.1,29.05,79.62c50.14,28.95,131.2,28.95,181.02,0C267.59,131.71,277.1,100.59,259.47,74.1z"/>
			</defs>
			<clipPath id="SVGID_14_">
				<use xlink:href="#SVGID_13_"  style="overflow:visible;"/>
			</clipPath>
			<g class="st53">
				<path class="st9" d="M270.18,94.46c-1.47-5.02-3.8-9.97-6.99-14.77l-3.71-5.58c3.1,4.66,5.36,9.46,6.78,14.33
					c1.7,5.82,2.2,11.73,1.49,17.59c-0.5,4.15-1.59,8.27-3.29,12.33c-1.38,3.3-3.15,6.56-5.33,9.74c-1.87,2.74-4.03,5.43-6.49,8.06
					l3.5,7.52c2.54-2.7,4.77-5.48,6.7-8.31c2.24-3.28,4.07-6.64,5.49-10.04c1.75-4.18,2.88-8.44,3.39-12.72
					C272.45,106.55,271.93,100.46,270.18,94.46z"/>
				<path class="st22" d="M252.64,136.15l3.5,7.52c-2.31,2.46-4.86,4.86-7.67,7.19l-3.27-7.74
					C247.93,140.86,250.41,138.53,252.64,136.15"/>
				<path class="st23" d="M245.21,143.12l3.27,7.74c-2.61,2.17-5.44,4.27-8.49,6.31l-3.01-7.93
					C239.93,147.27,242.67,145.22,245.21,143.12"/>
				<path class="st24" d="M236.98,149.24l3.01,7.93c-2.01,1.34-4.11,2.65-6.3,3.93c-0.99,0.58-2,1.14-3.01,1.7l-2.73-8.1
					c0.99-0.54,1.96-1.09,2.92-1.65C232.99,151.81,235.03,150.54,236.98,149.24"/>
				<path class="st25" d="M227.94,154.69l2.73,8.1c-3.2,1.75-6.52,3.38-9.93,4.91l-2.43-8.25
					C221.62,157.97,224.84,156.39,227.94,154.69"/>
				<path class="st26" d="M218.31,159.45l2.43,8.25c-3.4,1.52-6.91,2.93-10.49,4.23l-2.11-8.38
					C211.62,162.29,215.01,160.93,218.31,159.45"/>
				<path class="st27" d="M208.14,163.56l2.11,8.38c-3.61,1.31-7.3,2.5-11.07,3.59l-1.77-8.48
					C201.06,165.98,204.64,164.82,208.14,163.56"/>
				<path class="st28" d="M197.41,167.04l1.77,8.48c-3.76,1.08-7.59,2.06-11.48,2.92l-1.42-8.57
					C190.05,169.03,193.76,168.09,197.41,167.04"/>
				<path class="st29" d="M186.28,169.87l1.42,8.57c-3.83,0.85-7.71,1.59-11.64,2.23l-1.07-8.64
					C178.8,171.41,182.56,170.69,186.28,169.87"/>
				<path class="st30" d="M174.99,172.03l1.07,8.64c-3.86,0.62-7.76,1.15-11.69,1.56l-0.72-8.69
					C167.46,173.14,171.24,172.63,174.99,172.03"/>
				<path class="st31" d="M163.65,173.54l0.72,8.69c-3.96,0.42-7.95,0.74-11.95,0.95l-0.36-8.72
					C155.94,174.26,159.81,173.95,163.65,173.54"/>
				<path class="st32" d="M152.06,174.46l0.36,8.72c-4.38,0.23-8.78,0.33-13.17,0.31l0.04-8.73
					C143.55,174.78,147.81,174.68,152.06,174.46"/>
				<path class="st33" d="M139.29,174.76l-0.04,8.73c-6.29-0.03-12.57-0.33-18.81-0.88l0.61-8.7
					C127.1,174.44,133.19,174.73,139.29,174.76"/>
				<path class="st34" d="M121.05,173.91l-0.61,8.7c-10.08-0.89-20.01-2.46-29.59-4.7l1.51-8.56
					C101.64,171.53,111.28,173.05,121.05,173.91"/>
				<path class="st33" d="M92.36,169.35l-1.51,8.56c-8.12-1.9-15.98-4.29-23.45-7.16l2.22-8.34
					C76.86,165.2,84.48,167.51,92.36,169.35"/>
				<path class="st32" d="M69.62,162.41l-2.22,8.34c-6.23-2.4-12.19-5.13-17.8-8.2l2.76-8.09C57.8,157.44,63.58,160.09,69.62,162.41
					"/>
				<path class="st31" d="M52.36,154.46l-2.76,8.09c-0.87-0.48-1.74-0.96-2.59-1.46c-3.91-2.26-7.54-4.63-10.86-7.08l3.17-7.83
					c3.22,2.38,6.73,4.68,10.53,6.87C50.67,153.53,51.51,154,52.36,154.46"/>
				<path class="st30" d="M39.31,146.18l-3.17,7.83c-3.51-2.59-6.69-5.28-9.54-8.06l3.46-7.59
					C32.83,141.06,35.91,143.67,39.31,146.18"/>
				<path class="st29" d="M30.06,138.37l-3.46,7.59c-2.56-2.49-4.85-5.04-6.88-7.65l3.66-7.36
					C25.36,133.48,27.58,135.95,30.06,138.37"/>
				<path class="st28" d="M23.39,130.95l-3.66,7.36c-1.91-2.46-3.59-4.96-5.03-7.49l3.82-7.13
					C19.91,126.14,21.54,128.57,23.39,130.95"/>
				<path class="st27" d="M18.51,123.68l-3.82,7.13c-1.39-2.45-2.57-4.92-3.52-7.42l3.92-6.9
					C16.02,118.91,17.16,121.31,18.51,123.68"/>
				<path class="st26" d="M15.1,116.49l-3.92,6.9c-0.94-2.47-1.67-4.96-2.19-7.47l3.99-6.68C13.47,111.67,14.18,114.09,15.1,116.49"
					/>
				<path class="st25" d="M12.97,109.24l-3.99,6.68c-0.52-2.52-0.82-5.04-0.91-7.57l4.02-6.45
					C12.17,104.35,12.47,106.81,12.97,109.24"/>
				<path class="st9" d="M17.05,78.98c-1.21,1.8-2.3,3.62-3.27,5.46c-1.43,2.71-2.58,5.45-3.48,8.22c-0.85,2.64-1.46,5.3-1.83,7.96
					c-0.36,2.57-0.49,5.15-0.4,7.73l4.02-6.45c-0.09-2.5,0.04-5,0.39-7.49c0.36-2.59,0.95-5.16,1.78-7.72
					c0.87-2.68,1.99-5.35,3.37-7.97c0.94-1.78,2-3.55,3.17-5.29L17.05,78.98z"/>
			</g>
		</g>
		<g>
			<path class="st54" d="M230.27,48.2c50.15,28.95,50.42,75.9,0.6,104.85C181.05,182,99.99,182,49.84,153.05
				C-0.3,124.1-0.57,77.14,49.25,48.19C99.07,19.24,180.13,19.24,230.27,48.2z M55.48,149.77c47.02,27.14,122.99,27.15,169.71,0
				c46.71-27.15,46.46-71.15-0.55-98.3c-47.02-27.14-122.99-27.14-169.71,0C8.21,78.62,8.47,122.62,55.48,149.77"/>
		</g>
		<g>
			<polygon class="st54" points="196.63,100.62 140.24,133.39 83.49,100.62 139.88,67.85 			"/>
		</g>
		<g class="st0">
			<defs>
				<path id="SVGID_15_" class="st0" d="M262.95,163.02c-1.25,1.85-2.5,3.71-3.75,5.56c-6.19,9.19-15.68,17.8-28.46,25.23
					c-49.82,28.95-130.88,28.95-181.02,0c-13.18-7.61-22.91-16.46-29.2-25.9c0,0,0,0,0,0c-1.24-1.86-2.48-3.72-3.71-5.58
					c6.48,9.74,16.52,18.87,30.11,26.71c51.72,29.86,135.3,29.86,186.68,0C246.79,181.38,256.57,172.49,262.95,163.02z"/>
			</defs>
			<clipPath id="SVGID_16_">
				<use xlink:href="#SVGID_15_"  style="overflow:visible;"/>
			</clipPath>
			<g class="st55">
				<path class="st2" d="M262.95,163.02l-3.75,5.56c-6.19,9.19-15.68,17.8-28.46,25.23c-49.82,28.95-130.88,28.95-181.02,0
					c-13.18-7.61-22.91-16.46-29.2-25.9l-3.71-5.58c6.48,9.74,16.52,18.87,30.11,26.71c51.72,29.86,135.3,29.86,186.68,0
					C246.79,181.38,256.57,172.49,262.95,163.02"/>
			</g>
		</g>
		<g class="st0">
			<defs>
				<path id="SVGID_17_" class="st0" d="M272.04,107.41l-0.08,27.94c-0.06,19.44-12.83,38.85-38.35,53.68
					c-51.38,29.86-134.96,29.86-186.68,0C20.9,174.01,7.91,154.29,7.96,134.59l0.08-27.94c-0.06,19.69,12.94,39.42,38.97,54.44
					c51.72,29.86,135.3,29.86,186.68,0C259.21,146.26,271.98,126.85,272.04,107.41z"/>
			</defs>
			<clipPath id="SVGID_18_">
				<use xlink:href="#SVGID_17_"  style="overflow:visible;"/>
			</clipPath>
			<g class="st56">
				<path class="st2" d="M272.04,107.41l-0.08,27.94c-0.06,19.44-12.83,38.85-38.35,53.68c-2.83,1.64-5.76,3.2-8.77,4.66l0.08-27.94
					c3.01-1.46,5.94-3.02,8.77-4.66C259.21,146.26,271.98,126.85,272.04,107.41"/>
				<path class="st6" d="M224.91,165.76l-0.08,27.94c-7.82,3.8-16.22,6.98-25.03,9.56l0.08-27.94
					C208.69,172.74,217.09,169.55,224.91,165.76"/>
				<path class="st7" d="M199.88,175.32l-0.08,27.94c-8.34,2.44-17.03,4.33-25.93,5.68l0.08-27.94
					C182.85,179.65,191.55,177.76,199.88,175.32"/>
				<path class="st8" d="M173.96,181l-0.08,27.94c-10.35,1.57-20.97,2.4-31.6,2.48l0.08-27.94
					C152.99,183.39,163.61,182.57,173.96,181"/>
				<path class="st9" d="M142.36,183.48l-0.08,27.94c-34.41,0.28-69.01-7.18-95.35-22.39c-0.88-0.51-1.75-1.02-2.6-1.54l0.08-27.94
					c0.85,0.52,1.72,1.03,2.6,1.54C73.34,176.3,107.95,183.76,142.36,183.48"/>
				<path class="st8" d="M44.41,159.55l-0.08,27.94c-7.51-4.58-13.87-9.57-19.05-14.84l0.08-27.94
					C30.54,149.98,36.89,154.97,44.41,159.55"/>
				<path class="st7" d="M25.36,144.71l-0.08,27.94c-4.64-4.71-8.34-9.65-11.12-14.72L14.24,130
					C17.01,135.06,20.72,140,25.36,144.71"/>
				<path class="st6" d="M14.24,130l-0.08,27.94c-3.06-5.6-4.99-11.36-5.78-17.16l0.08-27.94C9.24,118.64,11.17,124.4,14.24,130"/>
				<path class="st2" d="M8.45,112.84l-0.08,27.94c-0.28-2.06-0.42-4.12-0.41-6.19l0.08-27.94C8.03,108.72,8.17,110.78,8.45,112.84"
					/>
			</g>
		</g>
	</g>
</g>
<g id="Logo_2_">
	<g class="st0">
		<g>
			<polygon class="st57" points="122.1,59.91 130.56,55 148.9,102.33 140.45,107.24 			"/>
		</g>
		<g>
			<polygon class="st58" points="122.1,59.91 140.45,107.24 114.91,92.5 109.26,77.81 			"/>
		</g>
		<polygon class="st59" points="140.46,72.96 132,77.88 168.9,99.18 156.77,116.67 165.22,111.75 177.35,94.26 		"/>
		<g>
			<polygon class="st60" points="168.9,99.18 156.77,116.67 144,109.29 132,77.88 			"/>
		</g>
		<polygon class="st59" points="124.3,7.29 115.84,12.21 140.67,26.54 107.86,73.73 116.31,68.82 149.13,21.63 		"/>
		<g>
			<polygon class="st60" points="140.67,26.54 107.86,73.73 95.16,41.08 115.84,12.21 			"/>
		</g>
		<g>
			<polygon class="st57" points="156.29,35.56 164.74,30.64 176.73,62.06 168.28,66.97 			"/>
		</g>
		<g>
			<polygon class="st58" points="156.29,35.56 168.28,66.97 132.09,46.08 144.22,28.59 			"/>
		</g>
		<g>
			<polygon class="st61" points="144.22,28.59 152.68,23.68 164.74,30.64 156.29,35.56 			"/>
		</g>
	</g>
</g>
</svg>
