<svg xmlns="http://www.w3.org/2000/svg" width="516.233" height="338.464" viewBox="0 0 516.233 338.464">
  <g id="SVG_logo" data-name="SVG logo" transform="translate(-356.68 -197.093)">
    <path id="Char_D" data-name="Char D" d="M1822.215,303.784s21.091-21.577,62.3-29.04,50.449-1.542,60.507,7.543c6.588,5.951,16.569,16.59,20.117,42.83,1.815,13.418.036,32.3-4.218,52.564-10.875,51.8-44.438,65.724-57.262,68.626-1.385.315-9.734,2.677-9.734,2.677s-34.562,4.543-41.7,0-1.779,12.654,5.684-79.17c.948-11.67,2.531-21.441,3.569-30.257,1.639-13.913,2.673-24.45,3.569-32.69,2.715-24.961,2.289-13.379,4.866-39.423" transform="translate(-1417)" fill="none" stroke="#000" stroke-linecap="round" stroke-width="36"/>
    <g id="Char_I" data-name="Char I">
      <path id="Path_2" data-name="Path 2" d="M2017.138,265.577s13.961-5.611,30.5-10.383c24.639-7.109,42.473-11.733,46.4-13.3" transform="translate(-1417)" fill="none" stroke="#000" stroke-linecap="round" stroke-width="32"/>
      <path id="Path_3" data-name="Path 3" d="M2060.293,253.207l-15.9,168.44" transform="translate(-1417)" fill="none" stroke="#000" stroke-width="38"/>
      <path id="Path_4" data-name="Path 4" d="M2008.378,432.679l25.957-8.761,38.287-10.058,13.952-4.218" transform="translate(-1417)" fill="none" stroke="#000" stroke-linecap="round" stroke-width="31"/>
    </g>
    <g id="Char_I-2" data-name="Char I" transform="translate(132 -24)">
      <path id="Path_2-2" data-name="Path 2" d="M2017.138,265.577s13.961-5.611,30.5-10.383c24.639-7.109,42.473-11.733,46.4-13.3" transform="translate(-1417)" fill="none" stroke="#000" stroke-linecap="round" stroke-width="32"/>
      <path id="Path_3-2" data-name="Path 3" d="M2060.293,253.207l-15.9,168.44" transform="translate(-1417)" fill="none" stroke="#000" stroke-width="38"/>
      <path id="Path_4-2" data-name="Path 4" d="M2008.378,432.679l25.957-8.761,38.287-10.058,13.952-4.218" transform="translate(-1417)" fill="none" stroke="#000" stroke-linecap="round" stroke-width="31"/>
    </g>
    <path id="Char_D-2" data-name="Char D" d="M1822.215,272.462a16.847,16.847,0,0,1,8.6-4.011c5.691-1.031,6.967-.213,8.356,1.042.91.822,2.288,2.291,2.778,5.915a23.165,23.165,0,0,1-.583,7.259c-1.5,7.154-6.137,9.077-7.908,9.478-.191.044-1.344.37-1.344.37s-4.773.627-5.759,0-.246,1.748.785-10.934c.131-1.612.35-2.961.493-4.179.226-1.922.369-3.377.493-4.515.375-3.447.316-1.848.672-5.445" transform="translate(-1462 235.208)" fill="none" stroke="#000" stroke-linecap="round" stroke-width="5"/>
    <g id="Char_I-3" data-name="Char I" transform="translate(-98 241.19)">
      <path id="Path_2-3" data-name="Path 2" d="M2017.138,245.317s2.02-.812,4.412-1.5c3.564-1.028,6.144-1.7,6.712-1.924" transform="translate(-1424.493 0)" fill="none" stroke="#000" stroke-linecap="round" stroke-width="5"/>
      <path id="Path_3-3" data-name="Path 3" d="M2046.694,253.207l-2.3,24.365" transform="translate(-1447.806 -9.679)" fill="none" stroke="#000" stroke-width="6"/>
      <path id="Path_4-3" data-name="Path 4" d="M2008.378,412.974l3.755-1.267,5.538-1.455,2.018-.61" transform="translate(-1417 -143.485)" fill="none" stroke="#000" stroke-linecap="round" stroke-width="5"/>
    </g>
    <g id="Char_I-4" data-name="Char I" transform="translate(72 216.19)">
      <path id="Path_2-4" data-name="Path 2" d="M2017.138,245.317s2.02-.812,4.412-1.5c3.564-1.028,6.144-1.7,6.712-1.924" transform="translate(-1424.493 0)" fill="none" stroke="#000" stroke-linecap="round" stroke-width="5"/>
      <path id="Path_3-4" data-name="Path 3" d="M2046.694,253.207l-2.3,24.365" transform="translate(-1447.806 -9.679)" fill="none" stroke="#000" stroke-width="6"/>
      <path id="Path_4-4" data-name="Path 4" d="M2008.378,412.974l3.755-1.267,5.538-1.455,2.018-.61" transform="translate(-1417 -143.485)" fill="none" stroke="#000" stroke-linecap="round" stroke-width="5"/>
    </g>
    <g id="Char_i-5" data-name="Char i">
      <path id="Path_5" data-name="Path 5" d="M1806.6,507.157l.477.507s-.729,4.786-1.273,15.722c-.032.652.045.085,0,1.114" transform="translate(-1417)" fill="none" stroke="#000" stroke-linecap="round" stroke-linejoin="round" stroke-width="5"/>
      <path id="Path_6" data-name="Path 6" d="M1808.627,500.674s-.756.955-1.472.636-.676-2.188.994-1.233-.994,0-.994,0" transform="translate(-1417)" fill="none" stroke="#000" stroke-linecap="round" stroke-linejoin="round" stroke-width="5"/>
    </g>
    <g id="Char_i-6" data-name="Char i" transform="translate(33 -5)">
      <path id="Path_5-2" data-name="Path 5" d="M1806.6,507.157l.477.507s-.729,4.786-1.273,15.722c-.032.652.045.085,0,1.114" transform="translate(-1417)" fill="none" stroke="#000" stroke-linecap="round" stroke-linejoin="round" stroke-width="5"/>
      <path id="Path_6-2" data-name="Path 6" d="M1808.627,500.674s-.756.955-1.472.636-.676-2.188.994-1.233-.994,0-.994,0" transform="translate(-1417)" fill="none" stroke="#000" stroke-linecap="round" stroke-linejoin="round" stroke-width="5"/>
    </g>
    <g id="Char_g" data-name="Char g">
      <path id="Path_7" data-name="Path 7" d="M1828.786,507.154s.04-3.059-5.449-1.587-7.393,8.461-7.393,8.461-1.233,3.978.835,7.069a5.406,5.406,0,0,0,3.461,1.92,5.3,5.3,0,0,0,3.994-1.92l.819-1.063,1.625-2.521A34.127,34.127,0,0,0,1828.786,507.154Z" transform="translate(-1417)" fill="none" stroke="#000" stroke-linecap="round" stroke-linejoin="round" stroke-width="5"/>
      <path id="Path_8" data-name="Path 8" d="M1814.273,529.74s-.77-.484.6.955a6.688,6.688,0,0,0,2.824,1.989c4.415,1.671,8.472-3.182,9.228-5.489s2.068-20.246,2.068-20.246" transform="translate(-1417)" fill="none" stroke="#000" stroke-linecap="round" stroke-linejoin="round" stroke-width="5"/>
    </g>
    <g id="Char_g-2" data-name="Char g" transform="translate(345 -49)">
      <path id="Path_7-2" data-name="Path 7" d="M1828.786,507.154s.04-3.059-5.449-1.587-7.393,8.461-7.393,8.461a7.9,7.9,0,0,0,.521,6.261c-.051-.08.512.849.636,1.034a3.485,3.485,0,0,0,2.744,1.71,6.145,6.145,0,0,0,4.387-1.937l.819-1.063,1.625-2.521A34.127,34.127,0,0,0,1828.786,507.154Z" transform="translate(-1417)" fill="none" stroke="#000" stroke-linecap="round" stroke-linejoin="round" stroke-width="5"/>
      <path id="Path_8-2" data-name="Path 8" d="M1814.273,529.74s-.289-.547,1.078.892a4.915,4.915,0,0,0,2.387,1.392c4.415,1.671,8.428-2.523,9.184-4.83a20.387,20.387,0,0,0,1-4.438c.653-5.733,1.07-15.808,1.07-15.808" transform="translate(-1417)" fill="none" stroke="#000" stroke-linecap="round" stroke-linejoin="round" stroke-width="5"/>
    </g>
    <g id="Char_i-7" data-name="Char i" transform="translate(435 -63)">
      <path id="Path_5-3" data-name="Path 5" d="M1807.354,507.629v.477l-.033.25c.032-.242-.576,3.98-1.12,14.9-.032.652.045.443,0,1.472" transform="translate(-1417)" fill="none" stroke="#000" stroke-linecap="round" stroke-linejoin="round" stroke-width="5"/>
      <path id="Path_6-3" data-name="Path 6" d="M1808.627,500.674s-.994,1.107-1.71.789-.2-2.585,1.472-1.631-1.233.245-1.233.245" transform="translate(-1417)" fill="none" stroke="#000" stroke-linecap="round" stroke-linejoin="round" stroke-width="5"/>
    </g>
    <g id="Char_t" data-name="Char t">
      <path id="Path_9" data-name="Path 9" d="M1847.347,503.736s8.313-1.989,12.41-3.262" transform="translate(-1417)" fill="none" stroke="#000" stroke-linecap="round" stroke-width="4"/>
      <path id="Path_10" data-name="Path 10" d="M1852.518,496.348l-.279,3.3-.716,7.359-.6,6.961s-.756,4.3,1.591,4.574,6.046-1.313,6.6-2.983" transform="translate(-1417)" fill="none" stroke="#000" stroke-linecap="round" stroke-linejoin="round" stroke-width="5"/>
    </g>
    <g id="Char_t-2" data-name="Char t" transform="translate(164 -24)">
      <path id="Path_9-2" data-name="Path 9" d="M1847.347,503.736s8.313-1.989,12.41-3.262" transform="translate(-1417)" fill="none" stroke="#000" stroke-linecap="round" stroke-width="5"/>
      <path id="Path_10-2" data-name="Path 10" d="M1852.8,494.632l-.562,5.017-.716,7.359-.6,6.961s-.671,4.529,1.676,4.808a6.214,6.214,0,0,0,2.864,0,7.607,7.607,0,0,0,2.864-1.193,11.856,11.856,0,0,0,3.023-3.614" transform="translate(-1417)" fill="none" stroke="#000" stroke-linecap="round" stroke-linejoin="round" stroke-width="5"/>
    </g>
    <g id="Char_t-3" data-name="Char t" transform="translate(272 -39)">
      <path id="Path_9-3" data-name="Path 9" d="M1847.347,503.736s8.313-1.989,12.41-3.262" transform="translate(-1417)" fill="none" stroke="#000" stroke-linecap="round" stroke-width="4"/>
      <path id="Path_10-3" data-name="Path 10" d="M1852.518,496.029l-.279,3.62-.716,7.359-.6,6.961s-.756,4.3,1.591,4.574,6.046-1.313,6.6-2.983" transform="translate(-1417)" fill="none" stroke="#000" stroke-linecap="round" stroke-linejoin="round" stroke-width="5"/>
    </g>
    <g id="Char_t-4" data-name="Char t" transform="translate(372 -54)">
      <path id="Path_9-4" data-name="Path 9" d="M1847.347,503.736s8.313-1.989,12.41-3.262" transform="translate(-1417)" fill="none" stroke="#000" stroke-linecap="round" stroke-width="4"/>
      <path id="Path_10-4" data-name="Path 10" d="M1852.518,496.348l-.279,3.3-.716,7.359-.6,6.961s-.756,4.3,1.591,4.574,6.046-1.313,6.6-2.983" transform="translate(-1417)" fill="none" stroke="#000" stroke-linecap="round" stroke-linejoin="round" stroke-width="5"/>
    </g>
    <path id="Char_a" data-name="Char a" d="M1881.187,501.061a6.63,6.63,0,0,0-5.051-2.7,6.855,6.855,0,0,0-5.29,2.7s-4.693,5.131-3.58,11.376a6.255,6.255,0,0,0,1.631,2.943c2.675,2.218,10.9-4.3,10.9-4.3l1.392-9.029s-2.466,10.859-.477,12.689" transform="translate(-1417)" fill="none" stroke="#000" stroke-linecap="round" stroke-linejoin="round" stroke-width="5"/>
    <path id="Char_a-2" data-name="Char a" d="M1882.328,499.549a8.444,8.444,0,0,0-4.972-1.472c-3.3-.08-6.285,3.58-6.285,3.58s-4.335,5.529-3.222,11.774a2.77,2.77,0,0,0,1.047,1.95c2.675,2.218,11.085-3.342,11.085-3.342l.716-5.449,1.87-7.438a27,27,0,0,0-1.87,6.006c-.674,3.693-.813,8.426.318,9.467" transform="translate(-1085 -48)" fill="none" stroke="#000" stroke-linecap="round" stroke-linejoin="round" stroke-width="5"/>
    <path id="Char_l" data-name="Char l" d="M1889.37,512.915c.384-5.619.622-9.964.931-14.065.311-4.132.6-8.072.827-10.652.722-8.119.931-6.05.931-6.05" transform="translate(-1417)" fill="none" stroke="#000" stroke-linecap="round" stroke-linejoin="round" stroke-width="5"/>
    <path id="Char_n" data-name="Char n" d="M1930.148,489.595l.6.915-1.83,16.348s.676-10.382,7.836-16.03c3.315-2.615,5.4-2.56,6.245-1.233.649.941-.069,1.406-.517,2.943a83.672,83.672,0,0,0-.915,8.393c-.166,2.609-.3,2.851,0,4.137.477,2.029.4.464.4.464" transform="translate(-1417)" fill="none" stroke="#000" stroke-linecap="round" stroke-linejoin="round" stroke-width="5"/>
    <path id="Char_n-2" data-name="Char n" d="M1930.148,489.595l.6.915-1.83,16.348s.676-10.382,7.836-16.03c3.315-2.615,5.4-2.56,6.245-1.233.649.941-.069,1.406-.517,2.943a83.672,83.672,0,0,0-.915,8.393c-.166,2.609-.3,2.851,0,4.137.477,2.029.4.464.4.464" transform="translate(-1247 -24)" fill="none" stroke="#000" stroke-linecap="round" stroke-linejoin="round" stroke-width="5"/>
    <path id="Char_n-3" data-name="Char n" d="M1930.745,489.009l-.533,6.563-.875,11.654s.255-10.751,7.414-16.4c3.315-2.615,5.578-3.374,6.419-2.047.649.941.179,2.27-.27,3.808a81.23,81.23,0,0,0-.936,8.313c-.166,2.609-.3,1.856,0,3.142.477,2.029,0-3.142,0-3.142" transform="translate(-1073 -50)" fill="none" stroke="#000" stroke-linecap="round" stroke-linejoin="round" stroke-width="5"/>
    <path id="Char_d-3" data-name="Char d" d="M1961.232,486.373s-2.347-.875-5.648,1.591c-1.466,1.095-2.667,3.308-3.739,5.569a11.5,11.5,0,0,0-.994,6.8,4.043,4.043,0,0,0,4.972,3.421,23.893,23.893,0,0,0,6.642-3.9c.919-.834,1.5-6,2.228-11.694.888-6.925,1.79-14.717,1.79-14.717l-2.188,15.035-.716,13.126c.4.756.716,1.273.716,1.273" transform="translate(-1417)" fill="none" stroke="#000" stroke-linecap="round" stroke-linejoin="round" stroke-width="5"/>
    <path id="Char_u" data-name="Char u" d="M1976.816,482.992a24.58,24.58,0,0,0-2.745,9.228c-.358,5.012.119,6.921.557,7.4a4.35,4.35,0,0,0,3.659,1.551c1.83-.278,7.876-5.33,7.876-5.33a100.758,100.758,0,0,1,1.869-12.848c1.193-4.614-1.79,10.421-1.869,17.263" transform="translate(-1417)" fill="none" stroke="#000" stroke-linecap="round" stroke-linejoin="round" stroke-width="5"/>
    <path id="Char_s" data-name="Char s" d="M2007.343,482.375s-1.352-4.057-6.921-2.267-3.063,6.165-3.063,6.165.239,1.313,5.33,2.506,3.222,6.643,2.665,7.12-2.9,2.983-8,1.79-1.472-1.591-1.472-1.591" transform="translate(-1417)" fill="none" stroke="#000" stroke-linecap="round" stroke-linejoin="round" stroke-width="5"/>
    <path id="Char_r" data-name="Char r" d="M2034.445,474.842c-.983,2.534-1.965,17.529-1.965,17.529s-.414-10.238,6.464-15.719,4.912-2.172,4.912-2.172" transform="translate(-1417)" fill="none" stroke="#000" stroke-linecap="round" stroke-linejoin="round" stroke-width="5"/>
    <path id="Char_r-2" data-name="Char r" d="M2033.881,473.841c-.983,2.534-1.647,16.8-1.647,16.8s-.028-9.864,6.849-15.346,3.719-.871,3.719-.871" transform="translate(-1266 -20)" fill="none" stroke="#000" stroke-linecap="round" stroke-linejoin="round" stroke-width="5"/>
    <path id="Char_y" data-name="Char y" d="M2051.757,472.576a7.551,7.551,0,0,0-2.295,4.069,23.178,23.178,0,0,0-.49,6.548c.259,4.6,3.34,7.053,5.2,6.64s4.157-2.594,5.4-4.611S2063.3,471,2063.3,471s-2.609,25.319-2.971,29.662.673-.245.673-.245" transform="translate(-1417)" fill="none" stroke="#000" stroke-linecap="round" stroke-linejoin="round" stroke-width="5"/>
    <path id="Char_e" data-name="Char e" d="M2139.615,469.465s2.347.756,7-1.79a43.237,43.237,0,0,0,6.006-3.58c3.461-2.267.159-5.489-1.909-5.569s-5.012,1.551-7.677,4.137a13.093,13.093,0,0,0-3.659,8.91c.2,1.949.119,4.574,4.177,5.29s8.631-3.262,8.631-3.262,1.273-1.392,1.114-2.029" transform="translate(-1417)" fill="none" stroke="#000" stroke-linecap="round" stroke-linejoin="round" stroke-width="5"/>
    <path id="Char_o" data-name="Char o" d="M2259.332,441.948c-5.293,1.316-6.059,3.916-6.7,5.171s-3.06,6.823.428,11.443,9.24-.7,9.944-1.744,2.6-2.754,2.172-9.24S2259.332,441.948,2259.332,441.948Z" transform="translate(-1417)" fill="none" stroke="#000" stroke-linecap="round" stroke-linejoin="round" stroke-width="5"/>
  </g>
</svg>
